<svg width="24" height="25" viewBox="0 0 24 25" fill="none" xmlns="http://www.w3.org/2000/svg">
<path d="M16.0002 12.8801C16.0009 12.7485 15.9757 12.618 15.926 12.4962C15.8762 12.3743 15.8029 12.2635 15.7102 12.1701L9.71019 6.17007C9.52188 5.98176 9.26649 5.87598 9.00019 5.87598C8.73388 5.87598 8.47849 5.98176 8.29019 6.17007C8.10188 6.35837 7.99609 6.61377 7.99609 6.88007C7.99609 7.14637 8.10188 7.40176 8.29019 7.59007L13.5902 12.8801L8.30019 18.1701C8.13636 18.3614 8.05075 18.6074 8.06047 18.8591C8.0702 19.1108 8.17453 19.3495 8.35262 19.5276C8.53072 19.7057 8.76946 19.8101 9.02113 19.8198C9.27281 19.8295 9.51888 19.7439 9.71019 19.5801L15.7102 13.5801C15.8949 13.3938 15.9991 13.1424 16.0002 12.8801Z" fill="white" fill-opacity="0.6"/>
</svg>
