<svg width="24" height="25" viewBox="0 0 24 25" fill="none" xmlns="http://www.w3.org/2000/svg">
<path d="M7.99981 12.8801C7.99905 12.7485 8.02428 12.618 8.07404 12.4962C8.12381 12.3743 8.19713 12.2635 8.28981 12.1701L14.2898 6.17007C14.4781 5.98176 14.7335 5.87598 14.9998 5.87598C15.2661 5.87598 15.5215 5.98176 15.7098 6.17007C15.8981 6.35837 16.0039 6.61377 16.0039 6.88007C16.0039 7.14637 15.8981 7.40176 15.7098 7.59007L10.4098 12.8801L15.6998 18.1701C15.8636 18.3614 15.9492 18.6074 15.9395 18.8591C15.9298 19.1108 15.8255 19.3495 15.6474 19.5276C15.4693 19.7057 15.2305 19.8101 14.9789 19.8198C14.7272 19.8295 14.4811 19.7439 14.2898 19.5801L8.28981 13.5801C8.10507 13.3938 8.00092 13.1424 7.99981 12.8801Z" fill="white" fill-opacity="0.6"/>
</svg>
